<?xml version="1.0" standalone="no"?><!DOCTYPE svg PUBLIC "-//W3C//DTD SVG 1.1//EN" "http://www.w3.org/Graphics/SVG/1.1/DTD/svg11.dtd"><svg class="icon" height="512" viewBox="0 0 1024 1024" version="1.1" xmlns="http://www.w3.org/2000/svg"><path d="M451.022031 862.293687H111.122234c-24.378544 0-44.16026-19.781716-44.16026-44.16026V416.704764h827.599824V206.224204c0-59.480613-48.357011-107.837624-107.837624-107.837624H703.531512V34.710119h-63.610534v63.676461H257.926333V34.710119h-63.610534v63.676461h-83.193565c-59.480613 0-107.837624 48.357011-107.837624 107.837624v611.90832c0 59.480613 48.357011 107.837624 107.837624 107.837624H451.022031c17.58445 0 31.83823-14.253781 31.83823-31.839134 0-17.649473-14.253781-31.837327-31.83823-31.837327zM66.961974 206.224204c0-24.378544 19.782619-44.16026 44.16026-44.16026h83.193565V257.512709h63.610534V162.063944h381.995548V257.512709h63.610534V162.063944h83.192662c24.378544 0 44.161163 19.782619 44.161163 44.16026v146.803196H66.961974V206.224204zM162.477569 512.153529h222.802589v63.660205H162.477569V512.153529zM162.477569 703.100728h222.802589v63.677365H162.477569v-63.677365zM799.046203 607.652867h-63.676461v159.125226H894.561798v-63.677365H799.046203V607.652867zM947.249219 554.899518c-48.157423-48.074337-111.967544-74.58422-180.040343-74.58422-68.006872 0-131.94975 26.509883-180.040344 74.58422-48.157423 48.157423-74.600476 112.034375-74.600476 180.040344 0 68.072799 26.443053 132.016581 74.600476 180.039441 48.157423 48.157423 112.034375 74.600476 180.040344 74.600476 68.072799 0 132.016581-26.443053 180.040343-74.600476 48.15652-48.15652 74.600476-111.966641 74.600477-180.039441 0-68.006872-26.443956-131.94975-74.600477-180.040344z m-180.040343 371.07063c-105.306207 0-190.964359-85.658152-190.964359-191.030286 0-105.306207 85.658152-190.964359 190.964359-190.964359 105.37394 0 190.964359 85.658152 190.964359 190.964359 0 105.373037-85.591322 191.030286-190.964359 191.030286z" /></svg>